# xmcd CD database file
#
# Track frame offsets:
#	150
#	20957
#	34905
#	66137
#	88117
#	115625
#	150207
#	165040
#	186747
#	202375
#
# Disc length: 2999 seconds
#
# Revision: 0
# Processed by: cddbd v1.5.1PL0 Copyright (c) Steve Scherf et al.
# Submitted via: CDex 1.51
#
DISCID=840bb50a
DTITLE=Mowg - Desire Disk 1
DYEAR=1900
DGENRE=Jazz
TTITLE0=Desire
TTITLE1=Confession
TTITLE2=Smile
TTITLE3=How Insensitive
TTITLE4=Cause We've Ended As Loves
TTITLE5=Another Day
TTITLE6=Fallen 
TTITLE7=Alone Again
TTITLE8=Once
TTITLE9=Compass
EXTD=
EXTT0=
EXTT1=
EXTT2=
EXTT3=
EXTT4=
EXTT5=
EXTT6=
EXTT7=
EXTT8=
EXTT9=
PLAYORDER=
